<?xml version="1.0" encoding="UTF-8" standalone="no"?>
<!DOCTYPE svg PUBLIC "-//W3C//DTD SVG 1.1//EN"
 "http://www.w3.org/Graphics/SVG/1.1/DTD/svg11.dtd">
<!-- Generated by graphviz version 2.47.0 (20210316.0004)
 -->
<!-- Title: dependencies Pages: 1 -->
<svg width="504pt" height="211pt"
 viewBox="0.00 0.00 504.00 211.00" xmlns="http://www.w3.org/2000/svg" xmlns:xlink="http://www.w3.org/1999/xlink">
<g id="graph0" class="graph" transform="scale(1 1) rotate(0) translate(4 207)">
<title>dependencies</title>
<polygon fill="white" stroke="transparent" points="-4,4 -4,-207 500,-207 500,4 -4,4"/>
<text text-anchor="start" x="227.01" y="-42.4" font-family="Times-12" font-weight="bold" font-size="14.00">Legend</text>
<polygon fill="#ffffb3" stroke="transparent" points="14,-10 14,-30 34,-30 34,-10 14,-10"/>
<text text-anchor="start" x="37.63" y="-15.4" font-family="Times-12" font-size="14.00"> &#160;Declarations</text>
<polygon fill="#8dd3c7" stroke="transparent" points="127,-10 127,-30 147,-30 147,-10 127,-10"/>
<text text-anchor="start" x="150.73" y="-15.4" font-family="Times-12" font-size="14.00"> &#160;Module</text>
<polygon fill="#80b1d3" stroke="transparent" points="213,-10 213,-30 233,-30 233,-10 213,-10"/>
<text text-anchor="start" x="236.78" y="-15.4" font-family="Times-12" font-size="14.00"> &#160;Bootstrap</text>
<polygon fill="#fdb462" stroke="transparent" points="310,-10 310,-30 330,-30 330,-10 310,-10"/>
<text text-anchor="start" x="333.67" y="-15.4" font-family="Times-12" font-size="14.00"> &#160;Providers</text>
<polygon fill="#fb8072" stroke="transparent" points="406,-10 406,-30 426,-30 426,-10 406,-10"/>
<text text-anchor="start" x="429.73" y="-15.4" font-family="Times-12" font-size="14.00"> &#160;Exports</text>
<g id="clust1" class="cluster">
<title>cluster_AppModule</title>
<polygon fill="none" stroke="black" stroke-dasharray="1,5" points="11.5,-70 11.5,-195 484.5,-195 484.5,-70 11.5,-70"/>
</g>
<g id="clust3" class="cluster">
<title>cluster_AppModule_imports</title>
<polygon fill="none" stroke="black" points="19.5,-78 19.5,-130 476.5,-130 476.5,-78 19.5,-78"/>
</g>
<!-- AuthModule -->
<g id="node1" class="node">
<title>AuthModule</title>
<polygon fill="#8dd3c7" stroke="black" points="468.05,-122 465.05,-126 444.05,-126 441.05,-122 380.95,-122 380.95,-86 468.05,-86 468.05,-122"/>
<text text-anchor="middle" x="424.5" y="-99.8" font-family="Times,serif" font-size="14.00">AuthModule</text>
</g>
<!-- AppModule -->
<g id="node5" class="node">
<title>AppModule</title>
<polygon fill="#8dd3c7" stroke="black" points="284.16,-187 281.16,-191 260.16,-191 257.16,-187 200.84,-187 200.84,-151 284.16,-151 284.16,-187"/>
<text text-anchor="middle" x="242.5" y="-164.8" font-family="Times,serif" font-size="14.00">AppModule</text>
</g>
<!-- AuthModule&#45;&gt;AppModule -->
<g id="edge1" class="edge">
<title>AuthModule&#45;&gt;AppModule</title>
<path fill="none" stroke="black" d="M424.5,-122.11C424.5,-141.34 424.5,-169 424.5,-169 424.5,-169 294.25,-169 294.25,-169"/>
<polygon fill="black" stroke="black" points="294.25,-165.5 284.25,-169 294.25,-172.5 294.25,-165.5"/>
</g>
<!-- BookmarkModule -->
<g id="node2" class="node">
<title>BookmarkModule</title>
<polygon fill="#8dd3c7" stroke="black" points="362.65,-122 359.65,-126 338.65,-126 335.65,-122 244.35,-122 244.35,-86 362.65,-86 362.65,-122"/>
<text text-anchor="middle" x="303.5" y="-99.8" font-family="Times,serif" font-size="14.00">BookmarkModule</text>
</g>
<!-- BookmarkModule&#45;&gt;AppModule -->
<g id="edge2" class="edge">
<title>BookmarkModule&#45;&gt;AppModule</title>
<path fill="none" stroke="black" d="M264.25,-122.11C264.25,-122.11 264.25,-140.99 264.25,-140.99"/>
<polygon fill="black" stroke="black" points="260.75,-140.99 264.25,-150.99 267.75,-140.99 260.75,-140.99"/>
</g>
<!-- PostsModule -->
<g id="node3" class="node">
<title>PostsModule</title>
<polygon fill="#8dd3c7" stroke="black" points="226.11,-122 223.11,-126 202.11,-126 199.11,-122 136.89,-122 136.89,-86 226.11,-86 226.11,-122"/>
<text text-anchor="middle" x="181.5" y="-99.8" font-family="Times,serif" font-size="14.00">PostsModule</text>
</g>
<!-- PostsModule&#45;&gt;AppModule -->
<g id="edge3" class="edge">
<title>PostsModule&#45;&gt;AppModule</title>
<path fill="none" stroke="black" d="M213.36,-122.11C213.36,-122.11 213.36,-140.99 213.36,-140.99"/>
<polygon fill="black" stroke="black" points="209.86,-140.99 213.36,-150.99 216.86,-140.99 209.86,-140.99"/>
</g>
<!-- UsersModule -->
<g id="node4" class="node">
<title>UsersModule</title>
<polygon fill="#8dd3c7" stroke="black" points="119.42,-122 116.42,-126 95.42,-126 92.42,-122 27.58,-122 27.58,-86 119.42,-86 119.42,-122"/>
<text text-anchor="middle" x="73.5" y="-99.8" font-family="Times,serif" font-size="14.00">UsersModule</text>
</g>
<!-- UsersModule&#45;&gt;AppModule -->
<g id="edge4" class="edge">
<title>UsersModule&#45;&gt;AppModule</title>
<path fill="none" stroke="black" d="M73.5,-122.11C73.5,-141.34 73.5,-169 73.5,-169 73.5,-169 190.72,-169 190.72,-169"/>
<polygon fill="black" stroke="black" points="190.72,-172.5 200.72,-169 190.72,-165.5 190.72,-172.5"/>
</g>
</g>
</svg>
