<?xml version="1.0" encoding="UTF-8" standalone="no"?>
<!DOCTYPE svg PUBLIC "-//W3C//DTD SVG 1.1//EN"
 "http://www.w3.org/Graphics/SVG/1.1/DTD/svg11.dtd">
<!-- Generated by graphviz version 2.47.0 (20210316.0004)
 -->
<!-- Title: dependencies Pages: 1 -->
<svg width="1097pt" height="287pt"
 viewBox="0.00 0.00 1097.00 287.00" xmlns="http://www.w3.org/2000/svg" xmlns:xlink="http://www.w3.org/1999/xlink">
<g id="graph0" class="graph" transform="scale(1 1) rotate(0) translate(4 283)">
<title>dependencies</title>
<polygon fill="white" stroke="transparent" points="-4,4 -4,-283 1093,-283 1093,4 -4,4"/>
<text text-anchor="start" x="523.51" y="-42.4" font-family="Times-12" font-weight="bold" font-size="14.00">Legend</text>
<polygon fill="#ffffb3" stroke="transparent" points="310.5,-10 310.5,-30 330.5,-30 330.5,-10 310.5,-10"/>
<text text-anchor="start" x="334.13" y="-15.4" font-family="Times-12" font-size="14.00"> &#160;Declarations</text>
<polygon fill="#8dd3c7" stroke="transparent" points="423.5,-10 423.5,-30 443.5,-30 443.5,-10 423.5,-10"/>
<text text-anchor="start" x="447.23" y="-15.4" font-family="Times-12" font-size="14.00"> &#160;Module</text>
<polygon fill="#80b1d3" stroke="transparent" points="509.5,-10 509.5,-30 529.5,-30 529.5,-10 509.5,-10"/>
<text text-anchor="start" x="533.28" y="-15.4" font-family="Times-12" font-size="14.00"> &#160;Bootstrap</text>
<polygon fill="#fdb462" stroke="transparent" points="606.5,-10 606.5,-30 626.5,-30 626.5,-10 606.5,-10"/>
<text text-anchor="start" x="630.17" y="-15.4" font-family="Times-12" font-size="14.00"> &#160;Providers</text>
<polygon fill="#fb8072" stroke="transparent" points="702.5,-10 702.5,-30 722.5,-30 722.5,-10 702.5,-10"/>
<text text-anchor="start" x="726.23" y="-15.4" font-family="Times-12" font-size="14.00"> &#160;Exports</text>
<g id="clust1" class="cluster">
<title>cluster_AppModule</title>
<polygon fill="none" stroke="black" stroke-dasharray="1,5" points="162,-70 162,-271 527,-271 527,-70 162,-70"/>
</g>
<g id="clust3" class="cluster">
<title>cluster_AppModule_imports</title>
<polygon fill="none" stroke="black" points="170,-78 170,-206 519,-206 519,-78 170,-78"/>
</g>
<g id="clust7" class="cluster">
<title>cluster_AuthModule</title>
<polygon fill="none" stroke="black" stroke-dasharray="1,5" points="535,-146 535,-214 799,-214 799,-146 535,-146"/>
</g>
<g id="clust10" class="cluster">
<title>cluster_AuthModule_exports</title>
<polygon fill="none" stroke="black" points="685,-154 685,-206 791,-206 791,-154 685,-154"/>
</g>
<g id="clust12" class="cluster">
<title>cluster_AuthModule_providers</title>
<polygon fill="none" stroke="black" points="543,-154 543,-206 677,-206 677,-154 543,-154"/>
</g>
<g id="clust19" class="cluster">
<title>cluster_PostsModule</title>
<polygon fill="none" stroke="black" stroke-dasharray="1,5" points="8,-70 8,-138 154,-138 154,-70 8,-70"/>
</g>
<g id="clust24" class="cluster">
<title>cluster_PostsModule_providers</title>
<polygon fill="none" stroke="black" points="16,-78 16,-130 146,-130 146,-78 16,-78"/>
</g>
<g id="clust25" class="cluster">
<title>cluster_UsersModule</title>
<polygon fill="none" stroke="black" stroke-dasharray="1,5" points="807,-146 807,-214 1081,-214 1081,-146 807,-146"/>
</g>
<g id="clust28" class="cluster">
<title>cluster_UsersModule_exports</title>
<polygon fill="none" stroke="black" points="963,-154 963,-206 1073,-206 1073,-154 963,-154"/>
</g>
<g id="clust30" class="cluster">
<title>cluster_UsersModule_providers</title>
<polygon fill="none" stroke="black" points="815,-154 815,-206 955,-206 955,-154 815,-154"/>
</g>
<!-- AuthModule -->
<g id="node1" class="node">
<title>AuthModule</title>
<polygon fill="#8dd3c7" stroke="black" points="401.55,-122 398.55,-126 377.55,-126 374.55,-122 314.45,-122 314.45,-86 401.55,-86 401.55,-122"/>
<text text-anchor="middle" x="358" y="-99.8" font-family="Times,serif" font-size="14.00">AuthModule</text>
</g>
<!-- AppModule -->
<g id="node5" class="node">
<title>AppModule</title>
<polygon fill="#8dd3c7" stroke="black" points="389.66,-263 386.66,-267 365.66,-267 362.66,-263 306.34,-263 306.34,-227 389.66,-227 389.66,-263"/>
<text text-anchor="middle" x="348" y="-240.8" font-family="Times,serif" font-size="14.00">AppModule</text>
</g>
<!-- AuthModule&#45;&gt;AppModule -->
<g id="edge1" class="edge">
<title>AuthModule&#45;&gt;AppModule</title>
<path fill="none" stroke="black" d="M354.19,-122.14C354.19,-122.14 354.19,-216.93 354.19,-216.93"/>
<polygon fill="black" stroke="black" points="350.69,-216.92 354.19,-226.93 357.69,-216.93 350.69,-216.92"/>
</g>
<!-- AuthService  -->
<g id="node6" class="node">
<title>AuthService </title>
<polygon fill="#fb8072" stroke="black" points="782.98,-198 693.02,-198 693.02,-162 782.98,-162 782.98,-198"/>
<text text-anchor="middle" x="738" y="-175.8" font-family="Times,serif" font-size="14.00">AuthService </text>
</g>
<!-- AuthModule&#45;&gt;AuthService  -->
<g id="edge5" class="edge">
<title>AuthModule&#45;&gt;AuthService </title>
<path fill="none" stroke="black" stroke-dasharray="5,2" d="M393.81,-122.11C393.81,-131.9 393.81,-142 393.81,-142 393.81,-142 738,-142 738,-142 738,-142 738,-151.89 738,-151.89"/>
<polygon fill="black" stroke="black" points="734.5,-151.89 738,-161.89 741.5,-151.89 734.5,-151.89"/>
</g>
<!-- BookmarkModule -->
<g id="node2" class="node">
<title>BookmarkModule</title>
<polygon fill="#8dd3c7" stroke="black" points="296.15,-122 293.15,-126 272.15,-126 269.15,-122 177.85,-122 177.85,-86 296.15,-86 296.15,-122"/>
<text text-anchor="middle" x="237" y="-99.8" font-family="Times,serif" font-size="14.00">BookmarkModule</text>
</g>
<!-- BookmarkModule&#45;&gt;AppModule -->
<g id="edge2" class="edge">
<title>BookmarkModule&#45;&gt;AppModule</title>
<path fill="none" stroke="black" d="M203.56,-122.14C203.56,-160.23 203.56,-245 203.56,-245 203.56,-245 296.22,-245 296.22,-245"/>
<polygon fill="black" stroke="black" points="296.22,-248.5 306.22,-245 296.22,-241.5 296.22,-248.5"/>
</g>
<!-- PostsModule -->
<g id="node3" class="node">
<title>PostsModule</title>
<polygon fill="#8dd3c7" stroke="black" points="318.61,-198 315.61,-202 294.61,-202 291.61,-198 229.39,-198 229.39,-162 318.61,-162 318.61,-198"/>
<text text-anchor="middle" x="274" y="-175.8" font-family="Times,serif" font-size="14.00">PostsModule</text>
</g>
<!-- PostsModule&#45;&gt;AppModule -->
<g id="edge3" class="edge">
<title>PostsModule&#45;&gt;AppModule</title>
<path fill="none" stroke="black" d="M312.36,-198.11C312.36,-198.11 312.36,-216.99 312.36,-216.99"/>
<polygon fill="black" stroke="black" points="308.86,-216.99 312.36,-226.99 315.86,-216.99 308.86,-216.99"/>
</g>
<!-- UsersModule -->
<g id="node4" class="node">
<title>UsersModule</title>
<polygon fill="#8dd3c7" stroke="black" points="510.92,-122 507.92,-126 486.92,-126 483.92,-122 419.08,-122 419.08,-86 510.92,-86 510.92,-122"/>
<text text-anchor="middle" x="465" y="-99.8" font-family="Times,serif" font-size="14.00">UsersModule</text>
</g>
<!-- UsersModule&#45;&gt;PostsModule -->
<g id="edge7" class="edge">
<title>UsersModule&#45;&gt;PostsModule</title>
<path fill="none" stroke="black" d="M449.76,-122.2C449.76,-146.36 449.76,-186 449.76,-186 449.76,-186 328.81,-186 328.81,-186"/>
<polygon fill="black" stroke="black" points="328.81,-182.5 318.81,-186 328.81,-189.5 328.81,-182.5"/>
</g>
<!-- UsersModule&#45;&gt;AppModule -->
<g id="edge4" class="edge">
<title>UsersModule&#45;&gt;AppModule</title>
<path fill="none" stroke="black" d="M480.24,-122.14C480.24,-160.23 480.24,-245 480.24,-245 480.24,-245 399.84,-245 399.84,-245"/>
<polygon fill="black" stroke="black" points="399.84,-241.5 389.84,-245 399.84,-248.5 399.84,-241.5"/>
</g>
<!-- UsersService  -->
<g id="node9" class="node">
<title>UsersService </title>
<polygon fill="#fb8072" stroke="black" points="1064.85,-198 971.15,-198 971.15,-162 1064.85,-162 1064.85,-198"/>
<text text-anchor="middle" x="1018" y="-175.8" font-family="Times,serif" font-size="14.00">UsersService </text>
</g>
<!-- UsersModule&#45;&gt;UsersService  -->
<g id="edge9" class="edge">
<title>UsersModule&#45;&gt;UsersService </title>
<path fill="none" stroke="black" stroke-dasharray="5,2" d="M510.72,-98C643.22,-98 1018,-98 1018,-98 1018,-98 1018,-151.8 1018,-151.8"/>
<polygon fill="black" stroke="black" points="1014.5,-151.8 1018,-161.8 1021.5,-151.8 1014.5,-151.8"/>
</g>
<!-- AuthService -->
<g id="node7" class="node">
<title>AuthService</title>
<ellipse fill="#fdb462" stroke="black" cx="610" cy="-180" rx="59.11" ry="18"/>
<text text-anchor="middle" x="610" y="-175.8" font-family="Times,serif" font-size="14.00">AuthService</text>
</g>
<!-- AuthService&#45;&gt;AuthModule -->
<g id="edge6" class="edge">
<title>AuthService&#45;&gt;AuthModule</title>
<path fill="none" stroke="black" d="M553.97,-174C491.1,-174 397.79,-174 397.79,-174 397.79,-174 397.79,-132.03 397.79,-132.03"/>
<polygon fill="black" stroke="black" points="401.29,-132.03 397.79,-122.03 394.29,-132.03 401.29,-132.03"/>
</g>
<!-- PostService -->
<g id="node8" class="node">
<title>PostService</title>
<ellipse fill="#fdb462" stroke="black" cx="81" cy="-104" rx="56.76" ry="18"/>
<text text-anchor="middle" x="81" y="-99.8" font-family="Times,serif" font-size="14.00">PostService</text>
</g>
<!-- PostService&#45;&gt;PostsModule -->
<g id="edge8" class="edge">
<title>PostService&#45;&gt;PostsModule</title>
<path fill="none" stroke="black" d="M81,-122.01C81,-144.49 81,-180 81,-180 81,-180 219.24,-180 219.24,-180"/>
<polygon fill="black" stroke="black" points="219.24,-183.5 229.24,-180 219.24,-176.5 219.24,-183.5"/>
</g>
<!-- UsersService -->
<g id="node10" class="node">
<title>UsersService</title>
<ellipse fill="#fdb462" stroke="black" cx="885" cy="-180" rx="61.95" ry="18"/>
<text text-anchor="middle" x="885" y="-175.8" font-family="Times,serif" font-size="14.00">UsersService</text>
</g>
<!-- UsersService&#45;&gt;UsersModule -->
<g id="edge10" class="edge">
<title>UsersService&#45;&gt;UsersModule</title>
<path fill="none" stroke="black" d="M885,-161.97C885,-141.23 885,-110 885,-110 885,-110 520.75,-110 520.75,-110"/>
<polygon fill="black" stroke="black" points="520.75,-106.5 510.75,-110 520.75,-113.5 520.75,-106.5"/>
</g>
</g>
</svg>
